<svg width="320" height="85" viewBox="0 0 320 85" fill="none" xmlns="http://www.w3.org/2000/svg">
<path d="M73.642 51.0909V62H72.321V51.0909H73.642ZM82.7467 62.1918C82.2282 62.1918 81.7577 62.0941 81.3351 61.8988C80.9126 61.6999 80.577 61.4141 80.3284 61.0412C80.0798 60.6648 79.9555 60.2102 79.9555 59.6776C79.9555 59.2088 80.0479 58.8288 80.2325 58.5376C80.4172 58.2429 80.664 58.0121 80.9729 57.8452C81.2819 57.6783 81.6228 57.554 81.9956 57.4723C82.3721 57.3871 82.7503 57.3196 83.1302 57.2699C83.6274 57.206 84.0305 57.158 84.3394 57.1261C84.6519 57.0906 84.8792 57.032 85.0212 56.9503C85.1668 56.8686 85.2396 56.7266 85.2396 56.5241V56.4815C85.2396 55.956 85.0958 55.5476 84.8082 55.2564C84.5241 54.9652 84.0926 54.8196 83.5138 54.8196C82.9136 54.8196 82.4431 54.951 82.1022 55.2138C81.7613 55.4766 81.5216 55.7571 81.3831 56.0554L80.1899 55.6293C80.403 55.1321 80.6871 54.745 81.0422 54.468C81.4008 54.1875 81.7915 53.9922 82.214 53.8821C82.6402 53.7685 83.0592 53.7116 83.4711 53.7116C83.7339 53.7116 84.0358 53.7436 84.3767 53.8075C84.7211 53.8679 85.0532 53.994 85.3728 54.1857C85.6959 54.3775 85.964 54.6669 86.1771 55.054C86.3902 55.4411 86.4967 55.9595 86.4967 56.6094V62H85.2396V60.892H85.1757C85.0905 61.0696 84.9484 61.2596 84.7496 61.462C84.5507 61.6644 84.2861 61.8366 83.9559 61.9787C83.6256 62.1207 83.2226 62.1918 82.7467 62.1918ZM82.9385 61.0625C83.4356 61.0625 83.8547 60.9648 84.1956 60.7695C84.54 60.5742 84.7993 60.3221 84.9733 60.0131C85.1508 59.7042 85.2396 59.3793 85.2396 59.0384V57.8878C85.1863 57.9517 85.0692 58.0103 84.8881 58.0636C84.7105 58.1133 84.5045 58.1577 84.2702 58.1967C84.0393 58.2322 83.8138 58.2642 83.5937 58.2926C83.377 58.3175 83.2013 58.3388 83.0663 58.3565C82.7396 58.3991 82.4342 58.4684 82.1501 58.5643C81.8696 58.6566 81.6423 58.7969 81.4683 58.9851C81.2979 59.1697 81.2126 59.4219 81.2126 59.7415C81.2126 60.1783 81.3742 60.5085 81.6974 60.7322C82.0241 60.9524 82.4378 61.0625 82.9385 61.0625ZM88.7912 62V53.8182H90.0057V55.0966H90.1122C90.2827 54.6598 90.5579 54.3207 90.9379 54.0792C91.3178 53.8342 91.7741 53.7116 92.3068 53.7116C92.8466 53.7116 93.2958 53.8342 93.6545 54.0792C94.0167 54.3207 94.299 54.6598 94.5014 55.0966H94.5866C94.7962 54.674 95.1104 54.3384 95.5295 54.0898C95.9485 53.8377 96.451 53.7116 97.0369 53.7116C97.7685 53.7116 98.3668 53.9407 98.832 54.3988C99.2972 54.8533 99.5298 55.5618 99.5298 56.5241V62H98.2727V56.5241C98.2727 55.9205 98.1076 55.489 97.7773 55.2298C97.4471 54.9705 97.0582 54.8409 96.6108 54.8409C96.0355 54.8409 95.5898 55.0149 95.2738 55.3629C94.9577 55.7074 94.7997 56.1442 94.7997 56.6733V62H93.5213V56.3963C93.5213 55.9311 93.3704 55.5565 93.0685 55.2724C92.7667 54.9847 92.3778 54.8409 91.902 54.8409C91.5753 54.8409 91.2699 54.9279 90.9858 55.1019C90.7053 55.2759 90.478 55.5174 90.304 55.8263C90.1335 56.1317 90.0483 56.4851 90.0483 56.8864V62H88.7912ZM108.455 62.1918C107.936 62.1918 107.466 62.0941 107.043 61.8988C106.621 61.6999 106.285 61.4141 106.036 61.0412C105.788 60.6648 105.664 60.2102 105.664 59.6776C105.664 59.2088 105.756 58.8288 105.941 58.5376C106.125 58.2429 106.372 58.0121 106.681 57.8452C106.99 57.6783 107.331 57.554 107.704 57.4723C108.08 57.3871 108.458 57.3196 108.838 57.2699C109.335 57.206 109.738 57.158 110.047 57.1261C110.36 57.0906 110.587 57.032 110.729 56.9503C110.875 56.8686 110.948 56.7266 110.948 56.5241V56.4815C110.948 55.956 110.804 55.5476 110.516 55.2564C110.232 54.9652 109.801 54.8196 109.222 54.8196C108.622 54.8196 108.151 54.951 107.81 55.2138C107.469 55.4766 107.23 55.7571 107.091 56.0554L105.898 55.6293C106.111 55.1321 106.395 54.745 106.75 54.468C107.109 54.1875 107.499 53.9922 107.922 53.8821C108.348 53.7685 108.767 53.7116 109.179 53.7116C109.442 53.7116 109.744 53.7436 110.085 53.8075C110.429 53.8679 110.761 53.994 111.081 54.1857C111.404 54.3775 111.672 54.6669 111.885 55.054C112.098 55.4411 112.205 55.9595 112.205 56.6094V62H110.948V60.892H110.884C110.798 61.0696 110.656 61.2596 110.458 61.462C110.259 61.6644 109.994 61.8366 109.664 61.9787C109.334 62.1207 108.931 62.1918 108.455 62.1918ZM108.646 61.0625C109.144 61.0625 109.563 60.9648 109.904 60.7695C110.248 60.5742 110.507 60.3221 110.681 60.0131C110.859 59.7042 110.948 59.3793 110.948 59.0384V57.8878C110.894 57.9517 110.777 58.0103 110.596 58.0636C110.419 58.1133 110.213 58.1577 109.978 58.1967C109.747 58.2322 109.522 58.2642 109.302 58.2926C109.085 58.3175 108.909 58.3388 108.774 58.3565C108.448 58.3991 108.142 58.4684 107.858 58.5643C107.578 58.6566 107.35 58.7969 107.176 58.9851C107.006 59.1697 106.921 59.4219 106.921 59.7415C106.921 60.1783 107.082 60.5085 107.405 60.7322C107.732 60.9524 108.146 61.0625 108.646 61.0625ZM122.361 53.8182V54.8835H117.951V53.8182H122.361ZM119.272 62V52.6889C119.272 52.2202 119.382 51.8295 119.602 51.517C119.822 51.2045 120.108 50.9702 120.46 50.8139C120.811 50.6577 121.182 50.5795 121.573 50.5795C121.882 50.5795 122.134 50.6044 122.329 50.6541C122.525 50.7038 122.67 50.75 122.766 50.7926L122.404 51.8793C122.34 51.858 122.251 51.8313 122.138 51.7994C122.028 51.7674 121.882 51.7514 121.701 51.7514C121.285 51.7514 120.985 51.8562 120.801 52.0657C120.62 52.2752 120.529 52.5824 120.529 52.9872V62H119.272ZM124.123 62V53.8182H125.338V55.054H125.423C125.572 54.6491 125.842 54.3207 126.233 54.0685C126.623 53.8164 127.064 53.6903 127.554 53.6903C127.646 53.6903 127.761 53.6921 127.9 53.6957C128.038 53.6992 128.143 53.7045 128.214 53.7116V54.9901C128.172 54.9794 128.074 54.9634 127.921 54.9421C127.772 54.9173 127.614 54.9048 127.447 54.9048C127.049 54.9048 126.694 54.9883 126.382 55.1552C126.073 55.3185 125.828 55.5458 125.647 55.837C125.469 56.1246 125.38 56.4531 125.38 56.8224V62H124.123ZM132.779 62.1705C132.04 62.1705 131.392 61.9947 130.835 61.6431C130.281 61.2915 129.848 60.7997 129.535 60.1676C129.226 59.5355 129.072 58.7969 129.072 57.9517C129.072 57.0994 129.226 56.3555 129.535 55.7198C129.848 55.0842 130.281 54.5906 130.835 54.239C131.392 53.8874 132.04 53.7116 132.779 53.7116C133.518 53.7116 134.164 53.8874 134.718 54.239C135.276 54.5906 135.709 55.0842 136.018 55.7198C136.33 56.3555 136.487 57.0994 136.487 57.9517C136.487 58.7969 136.33 59.5355 136.018 60.1676C135.709 60.7997 135.276 61.2915 134.718 61.6431C134.164 61.9947 133.518 62.1705 132.779 62.1705ZM132.779 61.0412C133.34 61.0412 133.802 60.8974 134.164 60.6097C134.526 60.3221 134.794 59.9439 134.968 59.4751C135.142 59.0064 135.229 58.4986 135.229 57.9517C135.229 57.4048 135.142 56.8952 134.968 56.4229C134.794 55.9506 134.526 55.5689 134.164 55.2777C133.802 54.9865 133.34 54.8409 132.779 54.8409C132.218 54.8409 131.756 54.9865 131.394 55.2777C131.032 55.5689 130.764 55.9506 130.59 56.4229C130.416 56.8952 130.329 57.4048 130.329 57.9517C130.329 58.4986 130.416 59.0064 130.59 59.4751C130.764 59.9439 131.032 60.3221 131.394 60.6097C131.756 60.8974 132.218 61.0412 132.779 61.0412ZM139.663 57.0781V62H138.405V53.8182H139.62V55.0966H139.726C139.918 54.6811 140.209 54.3473 140.6 54.0952C140.991 53.8395 141.495 53.7116 142.113 53.7116C142.667 53.7116 143.152 53.8253 143.567 54.0526C143.983 54.2763 144.306 54.6172 144.536 55.0753C144.767 55.5298 144.883 56.1051 144.883 56.8011V62H143.626V56.8864C143.626 56.2436 143.459 55.7429 143.125 55.3842C142.791 55.022 142.333 54.8409 141.751 54.8409C141.349 54.8409 140.991 54.9279 140.675 55.1019C140.362 55.2759 140.115 55.5298 139.934 55.8636C139.753 56.1974 139.663 56.6023 139.663 57.0781ZM150.738 53.8182V54.8835H146.498V53.8182H150.738ZM147.734 51.858H148.991V59.6562C148.991 60.0114 149.042 60.2777 149.145 60.4553C149.252 60.6293 149.387 60.7464 149.55 60.8068C149.717 60.8636 149.893 60.892 150.078 60.892C150.216 60.892 150.33 60.8849 150.419 60.8707C150.507 60.853 150.578 60.8388 150.632 60.8281L150.887 61.9574C150.802 61.9893 150.683 62.0213 150.53 62.0533C150.378 62.0888 150.184 62.1065 149.95 62.1065C149.595 62.1065 149.247 62.0302 148.906 61.8775C148.568 61.7248 148.288 61.4922 148.064 61.1797C147.844 60.8672 147.734 60.473 147.734 59.9972V51.858ZM155.972 62.1705C155.183 62.1705 154.503 61.9964 153.931 61.6484C153.363 61.2969 152.925 60.8068 152.616 60.1783C152.31 59.5462 152.158 58.8111 152.158 57.973C152.158 57.1349 152.31 56.3963 152.616 55.7571C152.925 55.1143 153.354 54.6136 153.905 54.255C154.459 53.8928 155.105 53.7116 155.844 53.7116C156.27 53.7116 156.691 53.7827 157.106 53.9247C157.522 54.0668 157.9 54.2976 158.241 54.6172C158.582 54.9332 158.853 55.3523 159.056 55.8743C159.258 56.3963 159.359 57.0391 159.359 57.8026V58.3352H153.053V57.2486H158.081C158.081 56.7869 157.989 56.375 157.804 56.0128C157.623 55.6506 157.364 55.3647 157.026 55.1552C156.692 54.9457 156.298 54.8409 155.844 54.8409C155.343 54.8409 154.91 54.9652 154.544 55.2138C154.182 55.4588 153.903 55.7784 153.708 56.1726C153.512 56.5668 153.415 56.9893 153.415 57.4403V58.1648C153.415 58.7827 153.521 59.3065 153.734 59.7362C153.951 60.1623 154.251 60.4872 154.635 60.7109C155.018 60.9311 155.464 61.0412 155.972 61.0412C156.302 61.0412 156.6 60.995 156.866 60.9027C157.136 60.8068 157.369 60.6648 157.564 60.4766C157.76 60.2848 157.911 60.0469 158.017 59.7628L159.232 60.1037C159.104 60.5156 158.889 60.8778 158.587 61.1903C158.285 61.4993 157.912 61.7408 157.468 61.9148C157.025 62.0852 156.526 62.1705 155.972 62.1705ZM162.529 57.0781V62H161.272V53.8182H162.486V55.0966H162.593C162.784 54.6811 163.076 54.3473 163.466 54.0952C163.857 53.8395 164.361 53.7116 164.979 53.7116C165.533 53.7116 166.018 53.8253 166.433 54.0526C166.849 54.2763 167.172 54.6172 167.403 55.0753C167.634 55.5298 167.749 56.1051 167.749 56.8011V62H166.492V56.8864C166.492 56.2436 166.325 55.7429 165.991 55.3842C165.657 55.022 165.199 54.8409 164.617 54.8409C164.216 54.8409 163.857 54.9279 163.541 55.1019C163.228 55.2759 162.982 55.5298 162.8 55.8636C162.619 56.1974 162.529 56.6023 162.529 57.0781ZM173.136 62.1705C172.454 62.1705 171.852 61.9982 171.33 61.6538C170.808 61.3058 170.399 60.8157 170.105 60.1836C169.81 59.5479 169.663 58.7969 169.663 57.9304C169.663 57.071 169.81 56.3253 170.105 55.6932C170.399 55.0611 170.81 54.5728 171.335 54.2283C171.861 53.8839 172.468 53.7116 173.157 53.7116C173.69 53.7116 174.11 53.8004 174.419 53.978C174.732 54.152 174.97 54.3509 175.133 54.5746C175.3 54.7947 175.43 54.9759 175.522 55.1179H175.628V51.0909H176.886V62H175.671V60.7429H175.522C175.43 60.892 175.298 61.0803 175.128 61.3075C174.957 61.5312 174.714 61.7319 174.398 61.9094C174.082 62.0835 173.661 62.1705 173.136 62.1705ZM173.306 61.0412C173.81 61.0412 174.236 60.9098 174.584 60.647C174.932 60.3807 175.197 60.0131 175.378 59.5444C175.559 59.0721 175.65 58.527 175.65 57.9091C175.65 57.2983 175.561 56.7638 175.383 56.3058C175.206 55.8441 174.943 55.4854 174.595 55.2298C174.247 54.9705 173.817 54.8409 173.306 54.8409C172.773 54.8409 172.329 54.9776 171.974 55.2511C171.623 55.521 171.358 55.8885 171.181 56.3537C171.007 56.8153 170.92 57.3338 170.92 57.9091C170.92 58.4915 171.008 59.0206 171.186 59.4964C171.367 59.9687 171.633 60.3452 171.985 60.6257C172.34 60.9027 172.78 61.0412 173.306 61.0412ZM186.671 62.1705C185.989 62.1705 185.387 61.9982 184.865 61.6538C184.343 61.3058 183.935 60.8157 183.64 60.1836C183.345 59.5479 183.198 58.7969 183.198 57.9304C183.198 57.071 183.345 56.3253 183.64 55.6932C183.935 55.0611 184.345 54.5728 184.87 54.2283C185.396 53.8839 186.003 53.7116 186.692 53.7116C187.225 53.7116 187.646 53.8004 187.954 53.978C188.267 54.152 188.505 54.3509 188.668 54.5746C188.835 54.7947 188.965 54.9759 189.057 55.1179H189.164V51.0909H190.421V62H189.206V60.7429H189.057C188.965 60.892 188.833 61.0803 188.663 61.3075C188.492 61.5312 188.249 61.7319 187.933 61.9094C187.617 62.0835 187.196 62.1705 186.671 62.1705ZM186.841 61.0412C187.345 61.0412 187.772 60.9098 188.12 60.647C188.468 60.3807 188.732 60.0131 188.913 59.5444C189.094 59.0721 189.185 58.527 189.185 57.9091C189.185 57.2983 189.096 56.7638 188.919 56.3058C188.741 55.8441 188.478 55.4854 188.13 55.2298C187.782 54.9705 187.353 54.8409 186.841 54.8409C186.309 54.8409 185.865 54.9776 185.509 55.2511C185.158 55.521 184.893 55.8885 184.716 56.3537C184.542 56.8153 184.455 57.3338 184.455 57.9091C184.455 58.4915 184.544 59.0206 184.721 59.4964C184.902 59.9687 185.169 60.3452 185.52 60.6257C185.875 60.9027 186.316 61.0412 186.841 61.0412ZM196.328 62.1705C195.54 62.1705 194.86 61.9964 194.288 61.6484C193.72 61.2969 193.281 60.8068 192.972 60.1783C192.667 59.5462 192.514 58.8111 192.514 57.973C192.514 57.1349 192.667 56.3963 192.972 55.7571C193.281 55.1143 193.711 54.6136 194.261 54.255C194.815 53.8928 195.462 53.7116 196.2 53.7116C196.626 53.7116 197.047 53.7827 197.463 53.9247C197.878 54.0668 198.256 54.2976 198.597 54.6172C198.938 54.9332 199.21 55.3523 199.412 55.8743C199.615 56.3963 199.716 57.0391 199.716 57.8026V58.3352H193.409V57.2486H198.437C198.437 56.7869 198.345 56.375 198.16 56.0128C197.979 55.6506 197.72 55.3647 197.383 55.1552C197.049 54.9457 196.655 54.8409 196.2 54.8409C195.699 54.8409 195.266 54.9652 194.9 55.2138C194.538 55.4588 194.259 55.7784 194.064 56.1726C193.869 56.5668 193.771 56.9893 193.771 57.4403V58.1648C193.771 58.7827 193.878 59.3065 194.091 59.7362C194.307 60.1623 194.608 60.4872 194.991 60.7109C195.375 60.9311 195.82 61.0412 196.328 61.0412C196.658 61.0412 196.957 60.995 197.223 60.9027C197.493 60.8068 197.725 60.6648 197.921 60.4766C198.116 60.2848 198.267 60.0469 198.373 59.7628L199.588 60.1037C199.46 60.5156 199.245 60.8778 198.943 61.1903C198.642 61.4993 198.269 61.7408 197.825 61.9148C197.381 62.0852 196.882 62.1705 196.328 62.1705ZM208.069 53.8182L205.044 62H203.765L200.74 53.8182H202.104L204.362 60.3381H204.447L206.706 53.8182H208.069ZM212.866 62.1705C212.078 62.1705 211.398 61.9964 210.826 61.6484C210.258 61.2969 209.819 60.8068 209.51 60.1783C209.205 59.5462 209.052 58.8111 209.052 57.973C209.052 57.1349 209.205 56.3963 209.51 55.7571C209.819 55.1143 210.249 54.6136 210.799 54.255C211.353 53.8928 212 53.7116 212.738 53.7116C213.164 53.7116 213.585 53.7827 214.001 53.9247C214.416 54.0668 214.794 54.2976 215.135 54.6172C215.476 54.9332 215.748 55.3523 215.95 55.8743C216.153 56.3963 216.254 57.0391 216.254 57.8026V58.3352H209.947V57.2486H214.975C214.975 56.7869 214.883 56.375 214.699 56.0128C214.517 55.6506 214.258 55.3647 213.921 55.1552C213.587 54.9457 213.193 54.8409 212.738 54.8409C212.238 54.8409 211.804 54.9652 211.439 55.2138C211.076 55.4588 210.798 55.7784 210.602 56.1726C210.407 56.5668 210.309 56.9893 210.309 57.4403V58.1648C210.309 58.7827 210.416 59.3065 210.629 59.7362C210.846 60.1623 211.146 60.4872 211.529 60.7109C211.913 60.9311 212.358 61.0412 212.866 61.0412C213.196 61.0412 213.495 60.995 213.761 60.9027C214.031 60.8068 214.263 60.6648 214.459 60.4766C214.654 60.2848 214.805 60.0469 214.912 59.7628L216.126 60.1037C215.998 60.5156 215.783 60.8778 215.482 61.1903C215.18 61.4993 214.807 61.7408 214.363 61.9148C213.919 62.0852 213.42 62.1705 212.866 62.1705ZM219.423 51.0909V62H218.166V51.0909H219.423ZM225.05 62.1705C224.311 62.1705 223.663 61.9947 223.105 61.6431C222.551 61.2915 222.118 60.7997 221.806 60.1676C221.497 59.5355 221.342 58.7969 221.342 57.9517C221.342 57.0994 221.497 56.3555 221.806 55.7198C222.118 55.0842 222.551 54.5906 223.105 54.239C223.663 53.8874 224.311 53.7116 225.05 53.7116C225.788 53.7116 226.435 53.8874 226.989 54.239C227.546 54.5906 227.979 55.0842 228.288 55.7198C228.601 56.3555 228.757 57.0994 228.757 57.9517C228.757 58.7969 228.601 59.5355 228.288 60.1676C227.979 60.7997 227.546 61.2915 226.989 61.6431C226.435 61.9947 225.788 62.1705 225.05 62.1705ZM225.05 61.0412C225.611 61.0412 226.072 60.8974 226.435 60.6097C226.797 60.3221 227.065 59.9439 227.239 59.4751C227.413 59.0064 227.5 58.4986 227.5 57.9517C227.5 57.4048 227.413 56.8952 227.239 56.4229C227.065 55.9506 226.797 55.5689 226.435 55.2777C226.072 54.9865 225.611 54.8409 225.05 54.8409C224.489 54.8409 224.027 54.9865 223.665 55.2777C223.302 55.5689 223.034 55.9506 222.86 56.4229C222.686 56.8952 222.599 57.4048 222.599 57.9517C222.599 58.4986 222.686 59.0064 222.86 59.4751C223.034 59.9439 223.302 60.3221 223.665 60.6097C224.027 60.8974 224.489 61.0412 225.05 61.0412ZM230.676 65.0682V53.8182H231.89V55.1179H232.04C232.132 54.9759 232.26 54.7947 232.423 54.5746C232.59 54.3509 232.828 54.152 233.137 53.978C233.449 53.8004 233.872 53.7116 234.405 53.7116C235.094 53.7116 235.701 53.8839 236.226 54.2283C236.752 54.5728 237.162 55.0611 237.457 55.6932C237.752 56.3253 237.899 57.071 237.899 57.9304C237.899 58.7969 237.752 59.5479 237.457 60.1836C237.162 60.8157 236.754 61.3058 236.232 61.6538C235.71 61.9982 235.108 62.1705 234.426 62.1705C233.9 62.1705 233.48 62.0835 233.164 61.9094C232.847 61.7319 232.604 61.5312 232.434 61.3075C232.263 61.0803 232.132 60.892 232.04 60.7429H231.933V65.0682H230.676ZM231.912 57.9091C231.912 58.527 232.002 59.0721 232.183 59.5444C232.365 60.0131 232.629 60.3807 232.977 60.647C233.325 60.9098 233.751 61.0412 234.256 61.0412C234.781 61.0412 235.22 60.9027 235.571 60.6257C235.926 60.3452 236.193 59.9687 236.37 59.4964C236.551 59.0206 236.642 58.4915 236.642 57.9091C236.642 57.3338 236.553 56.8153 236.376 56.3537C236.202 55.8885 235.937 55.521 235.582 55.2511C235.23 54.9776 234.788 54.8409 234.256 54.8409C233.744 54.8409 233.314 54.9705 232.966 55.2298C232.618 55.4854 232.356 55.8441 232.178 56.3058C232.001 56.7638 231.912 57.2983 231.912 57.9091ZM243.247 62.1705C242.459 62.1705 241.779 61.9964 241.207 61.6484C240.639 61.2969 240.2 60.8068 239.891 60.1783C239.586 59.5462 239.433 58.8111 239.433 57.973C239.433 57.1349 239.586 56.3963 239.891 55.7571C240.2 55.1143 240.63 54.6136 241.18 54.255C241.734 53.8928 242.381 53.7116 243.119 53.7116C243.545 53.7116 243.966 53.7827 244.382 53.9247C244.797 54.0668 245.175 54.2976 245.516 54.6172C245.857 54.9332 246.129 55.3523 246.331 55.8743C246.534 56.3963 246.635 57.0391 246.635 57.8026V58.3352H240.328V57.2486H245.356C245.356 56.7869 245.264 56.375 245.079 56.0128C244.898 55.6506 244.639 55.3647 244.302 55.1552C243.968 54.9457 243.574 54.8409 243.119 54.8409C242.618 54.8409 242.185 54.9652 241.819 55.2138C241.457 55.4588 241.178 55.7784 240.983 56.1726C240.788 56.5668 240.69 56.9893 240.69 57.4403V58.1648C240.69 58.7827 240.797 59.3065 241.01 59.7362C241.226 60.1623 241.526 60.4872 241.91 60.7109C242.294 60.9311 242.739 61.0412 243.247 61.0412C243.577 61.0412 243.876 60.995 244.142 60.9027C244.412 60.8068 244.644 60.6648 244.84 60.4766C245.035 60.2848 245.186 60.0469 245.292 59.7628L246.507 60.1037C246.379 60.5156 246.164 60.8778 245.862 61.1903C245.561 61.4993 245.188 61.7408 244.744 61.9148C244.3 62.0852 243.801 62.1705 243.247 62.1705ZM248.547 62V53.8182H249.762V55.054H249.847C249.996 54.6491 250.266 54.3207 250.656 54.0685C251.047 53.8164 251.487 53.6903 251.977 53.6903C252.07 53.6903 252.185 53.6921 252.324 53.6957C252.462 53.6992 252.567 53.7045 252.638 53.7116V54.9901C252.595 54.9794 252.498 54.9634 252.345 54.9421C252.196 54.9173 252.038 54.9048 251.871 54.9048C251.473 54.9048 251.118 54.9883 250.806 55.1552C250.497 55.3185 250.252 55.5458 250.07 55.837C249.893 56.1246 249.804 56.4531 249.804 56.8224V62H248.547ZM254.107 62.0852C253.844 62.0852 253.619 61.9911 253.43 61.8029C253.242 61.6147 253.148 61.3892 253.148 61.1264C253.148 60.8636 253.242 60.6381 253.43 60.4499C253.619 60.2617 253.844 60.1676 254.107 60.1676C254.37 60.1676 254.595 60.2617 254.783 60.4499C254.972 60.6381 255.066 60.8636 255.066 61.1264C255.066 61.3004 255.021 61.4602 254.932 61.6058C254.847 61.7514 254.732 61.8686 254.586 61.9574C254.444 62.0426 254.284 62.0852 254.107 62.0852Z" fill="white"/>
<path d="M52.3778 38V18.3636H54.7557V27.108H65.2259V18.3636H67.6037V38H65.2259V29.2173H54.7557V38H52.3778ZM78.2321 38.3068C76.813 38.3068 75.589 37.9936 74.5598 37.3672C73.5371 36.7344 72.7477 35.8523 72.1916 34.7209C71.6419 33.5831 71.367 32.2599 71.367 30.7514C71.367 29.2429 71.6419 27.9134 72.1916 26.7628C72.7477 25.6058 73.5211 24.7045 74.5119 24.0589C75.5091 23.407 76.6724 23.081 78.002 23.081C78.769 23.081 79.5265 23.2088 80.2743 23.4645C81.0222 23.7202 81.7029 24.1357 82.3166 24.7109C82.9302 25.2798 83.4192 26.0341 83.7836 26.9737C84.1479 27.9134 84.3301 29.0703 84.3301 30.4446V31.4034H72.9778V29.4474H82.0289C82.0289 28.6165 81.8627 27.875 81.5304 27.223C81.2044 26.571 80.7377 26.0565 80.1305 25.6793C79.5297 25.3022 78.8201 25.1136 78.002 25.1136C77.1007 25.1136 76.3208 25.3374 75.6625 25.7848C75.0105 26.2259 74.5087 26.8011 74.1571 27.5107C73.8056 28.2202 73.6298 28.9808 73.6298 29.7926V31.0966C73.6298 32.2088 73.8216 33.1516 74.2051 33.9251C74.595 34.6921 75.1351 35.277 75.8255 35.6797C76.5158 36.076 77.318 36.2741 78.2321 36.2741C78.8265 36.2741 79.3635 36.1911 79.8429 36.0249C80.3287 35.8523 80.7473 35.5966 81.0989 35.2578C81.4505 34.9126 81.7221 34.4844 81.9139 33.973L84.1 34.5866C83.8699 35.3281 83.4831 35.9801 82.9398 36.5426C82.3965 37.0987 81.7253 37.5334 80.9263 37.8466C80.1273 38.1534 79.2292 38.3068 78.2321 38.3068ZM90.035 18.3636V38H87.7722V18.3636H90.035ZM96.4422 18.3636V38H94.1794V18.3636H96.4422ZM106.57 38.3068C105.24 38.3068 104.074 37.9904 103.07 37.3576C102.073 36.7248 101.293 35.8395 100.73 34.7017C100.174 33.5639 99.8963 32.2344 99.8963 30.7131C99.8963 29.179 100.174 27.8398 100.73 26.6957C101.293 25.5515 102.073 24.663 103.07 24.0302C104.074 23.3974 105.24 23.081 106.57 23.081C107.899 23.081 109.063 23.3974 110.06 24.0302C111.063 24.663 111.843 25.5515 112.399 26.6957C112.962 27.8398 113.243 29.179 113.243 30.7131C113.243 32.2344 112.962 33.5639 112.399 34.7017C111.843 35.8395 111.063 36.7248 110.06 37.3576C109.063 37.9904 107.899 38.3068 106.57 38.3068ZM106.57 36.2741C107.58 36.2741 108.411 36.0153 109.062 35.4975C109.714 34.9798 110.197 34.299 110.51 33.4553C110.824 32.6115 110.98 31.6974 110.98 30.7131C110.98 29.7287 110.824 28.8114 110.51 27.9613C110.197 27.1112 109.714 26.424 109.062 25.8999C108.411 25.3757 107.58 25.1136 106.57 25.1136C105.56 25.1136 104.729 25.3757 104.077 25.8999C103.425 26.424 102.942 27.1112 102.629 27.9613C102.316 28.8114 102.159 29.7287 102.159 30.7131C102.159 31.6974 102.316 32.6115 102.629 33.4553C102.942 34.299 103.425 34.9798 104.077 35.4975C104.729 36.0153 105.56 36.2741 106.57 36.2741ZM119.688 18.3636L119.497 32.4773H117.272L117.081 18.3636H119.688ZM118.384 38.1534C117.911 38.1534 117.506 37.984 117.167 37.6452C116.828 37.3065 116.659 36.9006 116.659 36.4276C116.659 35.9545 116.828 35.5487 117.167 35.2099C117.506 34.8711 117.911 34.7017 118.384 34.7017C118.858 34.7017 119.263 34.8711 119.602 35.2099C119.941 35.5487 120.11 35.9545 120.11 36.4276C120.11 36.7408 120.03 37.0284 119.871 37.2905C119.717 37.5526 119.509 37.7635 119.247 37.9233C118.992 38.0767 118.704 38.1534 118.384 38.1534ZM134.49 18.3636V38H132.112V18.3636H134.49ZM140.945 18.3636V20.0895C140.945 20.6136 140.849 21.1729 140.658 21.7674C140.472 22.3555 140.197 22.9276 139.833 23.4837C139.475 24.0334 139.04 24.5128 138.529 24.9219L137.302 23.9247C137.704 23.3494 138.053 22.7518 138.347 22.1317C138.647 21.5053 138.797 20.8374 138.797 20.1278V18.3636H140.945ZM143.354 38V23.2727H145.54V25.5739H145.732C146.039 24.7876 146.534 24.1772 147.218 23.7425C147.902 23.3015 148.724 23.081 149.682 23.081C150.654 23.081 151.463 23.3015 152.108 23.7425C152.76 24.1772 153.268 24.7876 153.633 25.5739H153.786C154.163 24.8132 154.729 24.2092 155.483 23.7617C156.237 23.3079 157.142 23.081 158.197 23.081C159.513 23.081 160.59 23.4933 161.428 24.3178C162.265 25.136 162.684 26.4112 162.684 28.1435V38H160.421V28.1435C160.421 27.0568 160.124 26.2802 159.529 25.8136C158.935 25.3469 158.235 25.1136 157.43 25.1136C156.394 25.1136 155.592 25.4268 155.023 26.0533C154.454 26.6733 154.17 27.4595 154.17 28.4119V38H151.868V27.9134C151.868 27.076 151.597 26.4016 151.053 25.8903C150.51 25.3725 149.81 25.1136 148.954 25.1136C148.366 25.1136 147.816 25.2702 147.305 25.5835C146.8 25.8967 146.39 26.3313 146.077 26.8874C145.77 27.4371 145.617 28.0732 145.617 28.7955V38H143.354ZM188.145 24.5C187.934 23.8544 187.656 23.2759 187.311 22.7646C186.972 22.2468 186.566 21.8058 186.093 21.4414C185.626 21.0771 185.096 20.799 184.501 20.6072C183.907 20.4155 183.255 20.3196 182.545 20.3196C181.382 20.3196 180.324 20.62 179.372 21.2209C178.419 21.8217 177.662 22.707 177.099 23.8768C176.537 25.0465 176.256 26.4815 176.256 28.1818C176.256 29.8821 176.54 31.3171 177.109 32.4869C177.678 33.6566 178.448 34.5419 179.42 35.1428C180.391 35.7436 181.484 36.044 182.699 36.044C183.824 36.044 184.815 35.8043 185.671 35.3249C186.534 34.8391 187.205 34.1552 187.685 33.2731C188.17 32.3846 188.413 31.3395 188.413 30.1378L189.142 30.2912H183.236V28.1818H190.714V30.2912C190.714 31.9084 190.369 33.3146 189.679 34.5099C188.995 35.7053 188.049 36.6321 186.841 37.2905C185.639 37.9425 184.259 38.2685 182.699 38.2685C180.96 38.2685 179.433 37.8594 178.116 37.0412C176.805 36.223 175.783 35.0597 175.048 33.5511C174.319 32.0426 173.955 30.2528 173.955 28.1818C173.955 26.6286 174.162 25.2319 174.578 23.9918C175 22.7454 175.594 21.6843 176.361 20.8086C177.128 19.9329 178.036 19.2617 179.084 18.7951C180.132 18.3285 181.286 18.0952 182.545 18.0952C183.581 18.0952 184.546 18.2518 185.441 18.565C186.342 18.8718 187.145 19.3097 187.848 19.8786C188.557 20.4411 189.148 21.1154 189.621 21.9016C190.094 22.6815 190.42 23.5476 190.599 24.5H188.145ZM200.655 38.3068C199.236 38.3068 198.012 37.9936 196.983 37.3672C195.96 36.7344 195.171 35.8523 194.614 34.7209C194.065 33.5831 193.79 32.2599 193.79 30.7514C193.79 29.2429 194.065 27.9134 194.614 26.7628C195.171 25.6058 195.944 24.7045 196.935 24.0589C197.932 23.407 199.095 23.081 200.425 23.081C201.192 23.081 201.949 23.2088 202.697 23.4645C203.445 23.7202 204.126 24.1357 204.739 24.7109C205.353 25.2798 205.842 26.0341 206.206 26.9737C206.571 27.9134 206.753 29.0703 206.753 30.4446V31.4034H195.401V29.4474H204.452C204.452 28.6165 204.286 27.875 203.953 27.223C203.627 26.571 203.161 26.0565 202.553 25.6793C201.953 25.3022 201.243 25.1136 200.425 25.1136C199.524 25.1136 198.744 25.3374 198.085 25.7848C197.433 26.2259 196.932 26.8011 196.58 27.5107C196.228 28.2202 196.053 28.9808 196.053 29.7926V31.0966C196.053 32.2088 196.244 33.1516 196.628 33.9251C197.018 34.6921 197.558 35.277 198.248 35.6797C198.939 36.076 199.741 36.2741 200.655 36.2741C201.249 36.2741 201.786 36.1911 202.266 36.0249C202.752 35.8523 203.17 35.5966 203.522 35.2578C203.873 34.9126 204.145 34.4844 204.337 33.973L206.523 34.5866C206.293 35.3281 205.906 35.9801 205.363 36.5426C204.819 37.0987 204.148 37.5334 203.349 37.8466C202.55 38.1534 201.652 38.3068 200.655 38.3068ZM210.195 38V23.2727H212.381V25.4972H212.535C212.803 24.7685 213.289 24.1772 213.992 23.7234C214.695 23.2695 215.488 23.0426 216.37 23.0426C216.536 23.0426 216.744 23.0458 216.993 23.0522C217.242 23.0586 217.431 23.0682 217.559 23.081V25.3821C217.482 25.3629 217.306 25.3342 217.031 25.2958C216.763 25.2511 216.478 25.2287 216.178 25.2287C215.462 25.2287 214.823 25.3789 214.26 25.6793C213.704 25.9734 213.263 26.3825 212.937 26.9066C212.618 27.4244 212.458 28.0156 212.458 28.6804V38H210.195ZM220.241 38V23.2727H222.427V25.5739H222.619C222.926 24.7876 223.421 24.1772 224.105 23.7425C224.789 23.3015 225.61 23.081 226.569 23.081C227.541 23.081 228.349 23.3015 228.995 23.7425C229.647 24.1772 230.155 24.7876 230.519 25.5739H230.673C231.05 24.8132 231.616 24.2092 232.37 23.7617C233.124 23.3079 234.029 23.081 235.083 23.081C236.4 23.081 237.477 23.4933 238.314 24.3178C239.152 25.136 239.57 26.4112 239.57 28.1435V38H237.308V28.1435C237.308 27.0568 237.01 26.2802 236.416 25.8136C235.822 25.3469 235.122 25.1136 234.316 25.1136C233.281 25.1136 232.479 25.4268 231.91 26.0533C231.341 26.6733 231.056 27.4595 231.056 28.4119V38H228.755V27.9134C228.755 27.076 228.483 26.4016 227.94 25.8903C227.397 25.3725 226.697 25.1136 225.84 25.1136C225.252 25.1136 224.703 25.2702 224.191 25.5835C223.686 25.8967 223.277 26.3313 222.964 26.8874C222.657 27.4371 222.504 28.0732 222.504 28.7955V38H220.241ZM248.042 38.3452C247.108 38.3452 246.261 38.1694 245.501 37.8178C244.74 37.4599 244.136 36.9453 243.689 36.2741C243.241 35.5966 243.017 34.7784 243.017 33.8196C243.017 32.9759 243.184 32.2919 243.516 31.7678C243.848 31.2372 244.293 30.8217 244.849 30.5213C245.405 30.2209 246.018 29.9972 246.69 29.8501C247.367 29.6967 248.048 29.5753 248.732 29.4858C249.627 29.3707 250.352 29.2844 250.908 29.2269C251.471 29.163 251.88 29.0575 252.136 28.9105C252.398 28.7635 252.529 28.5078 252.529 28.1435V28.0668C252.529 27.1207 252.27 26.3857 251.752 25.8615C251.241 25.3374 250.464 25.0753 249.422 25.0753C248.342 25.0753 247.495 25.3118 246.881 25.7848C246.268 26.2578 245.836 26.7628 245.587 27.2997L243.439 26.5327C243.823 25.6378 244.334 24.9411 244.973 24.4425C245.619 23.9375 246.322 23.5859 247.083 23.3878C247.85 23.1832 248.604 23.081 249.346 23.081C249.819 23.081 250.362 23.1385 250.975 23.2536C251.596 23.3622 252.193 23.5891 252.768 23.9343C253.35 24.2795 253.833 24.8004 254.216 25.4972C254.6 26.1939 254.792 27.1271 254.792 28.2969V38H252.529V36.0057H252.414C252.26 36.3253 252.005 36.6673 251.647 37.0316C251.289 37.396 250.813 37.706 250.218 37.9616C249.624 38.2173 248.898 38.3452 248.042 38.3452ZM248.387 36.3125C249.282 36.3125 250.036 36.1367 250.65 35.7852C251.27 35.4336 251.736 34.9798 252.049 34.4237C252.369 33.8675 252.529 33.2827 252.529 32.669V30.598C252.433 30.7131 252.222 30.8185 251.896 30.9144C251.576 31.0039 251.206 31.0838 250.784 31.1541C250.368 31.218 249.962 31.2756 249.566 31.3267C249.176 31.3714 248.86 31.4098 248.617 31.4418C248.029 31.5185 247.479 31.6431 246.968 31.8157C246.463 31.9819 246.054 32.2344 245.74 32.5732C245.434 32.9055 245.28 33.3594 245.28 33.9347C245.28 34.7209 245.571 35.3153 246.153 35.718C246.741 36.1143 247.485 36.3125 248.387 36.3125ZM261.184 29.1406V38H258.922V23.2727H261.108V25.5739H261.299C261.645 24.826 262.169 24.2251 262.872 23.7713C263.575 23.3111 264.483 23.081 265.595 23.081C266.592 23.081 267.465 23.2855 268.212 23.6946C268.96 24.0973 269.542 24.7109 269.957 25.5355C270.373 26.3537 270.581 27.3892 270.581 28.642V38H268.318V28.7955C268.318 27.6385 268.017 26.7372 267.417 26.0916C266.816 25.4396 265.991 25.1136 264.943 25.1136C264.221 25.1136 263.575 25.2702 263.006 25.5835C262.444 25.8967 261.999 26.3537 261.673 26.9545C261.347 27.5554 261.184 28.2841 261.184 29.1406Z" fill="white"/>
</svg>
